<svg width="38" height="37" viewBox="0 0 38 37" fill="none" xmlns="http://www.w3.org/2000/svg">
<path opacity="0.4" d="M24.5438 31.2692H34.1202C34.1202 31.2692 34.631 16.6433 28.5827 16.6433C22.5345 16.6433 28.0784 25.7214 18.4959 25.2171V27.2345L20.009 28.9492C23.9462 28.9492 24.5438 27.3736 24.5438 27.3736V31.2692Z" fill="black"/>
<rect opacity="0.4" x="23.0343" y="7.06079" width="8.57378" height="8.57378" rx="4.28689" fill="black"/>
<rect x="6.39142" y="7.06079" width="8.57378" height="8.57378" rx="4.28689" fill="black"/>
<path d="M13.4521 31.2692H3.86967C3.86967 31.2692 3.36533 16.6433 9.41742 16.6433C15.4695 16.6433 10.9304 23.7986 18.4955 25.2171V26.7301H20.0086V28.9492C16.0689 28.9492 13.4521 27.2345 13.4521 27.2345V31.2692Z" fill="black"/>
</svg>
